HIERARCHY
ROOT Root
{
  OFFSET 0.0 0.0 0.0
  CHANNELS 6 Xposition Yposition Zposition Zrotation Yrotation Xrotation
  JOINT Hips
  {
    OFFSET 0.0 100.0 0.0
    CHANNELS 6 Xposition Yposition Zposition Zrotation Yrotation Xrotation
    JOINT Spine1
    {
      OFFSET 5.003913 -0.037094 -0.013727
      CHANNELS 3 Zrotation Yrotation Xrotation
      JOINT Spine2
      {
        OFFSET 7.125363 -1e-06 0.0
        CHANNELS 3 Zrotation Yrotation Xrotation
        JOINT Chest
        {
          OFFSET 7.594027 1e-06 0.0
          CHANNELS 3 Zrotation Yrotation Xrotation
          JOINT Neck1
          {
            OFFSET 26.313086 -0.460272 -0.181672
            CHANNELS 3 Zrotation Yrotation Xrotation
            JOINT Neck2
            {
              OFFSET 8.045911 0.0 0.0
              CHANNELS 3 Zrotation Yrotation Xrotation
              JOINT Head
              {
                OFFSET 6.432774 0.0 0.0
                CHANNELS 3 Zrotation Yrotation Xrotation
                JOINT HeadEnd
                {
                  OFFSET 16.169773 0.06451 0.00362
                  CHANNELS 3 Zrotation Yrotation Xrotation
                }
                JOINT Jaw
                {
                  OFFSET 0.108741 3.12938 0.002639
                  CHANNELS 3 Zrotation Yrotation Xrotation
                }
                JOINT LeftEye
                {
                  OFFSET 4.45173 8.166359 3.206392
                  CHANNELS 3 Zrotation Yrotation Xrotation
                }
                JOINT RightEye
                {
                  OFFSET 4.436895 8.135758 -3.222429
                  CHANNELS 3 Zrotation Yrotation Xrotation
                }
              }
            }
          }
          JOINT LeftShoulder
          {
            OFFSET 23.218927 5.195579 1.621656
            CHANNELS 3 Zrotation Yrotation Xrotation
            JOINT LeftArm
            {
              OFFSET 15.902118 2e-06 -2e-06
              CHANNELS 3 Zrotation Yrotation Xrotation
              JOINT LeftForeArm
              {
                OFFSET 28.739307 0.0 -1e-06
                CHANNELS 3 Zrotation Yrotation Xrotation
                JOINT LeftHand
                {
                  OFFSET 27.093981 -4e-06 0.0
                  CHANNELS 3 Zrotation Yrotation Xrotation
                  JOINT LeftHandThumb1
                  {
                    OFFSET 2.276781 3.380274 0.83384
                    CHANNELS 3 Zrotation Yrotation Xrotation
                    JOINT LeftHandThumb2
                    {
                      OFFSET 4.705309 -1e-06 -1e-06
                      CHANNELS 3 Zrotation Yrotation Xrotation
                      JOINT LeftHandThumb3
                      {
                        OFFSET 2.798515 0.0 3e-06
                        CHANNELS 3 Zrotation Yrotation Xrotation
                        JOINT LeftHandThumbEnd
                        {
                          OFFSET 3.180793 4e-06 -4e-06
                          CHANNELS 3 Zrotation Yrotation Xrotation
                        }
                      }
                    }
                  }
                  JOINT LeftHandIndex1
                  {
                    OFFSET 3.247786 2.352677 0.137192
                    CHANNELS 3 Zrotation Yrotation Xrotation
                    JOINT LeftHandIndex2
                    {
                      OFFSET 6.367095 1e-06 0.0
                      CHANNELS 3 Zrotation Yrotation Xrotation
                      JOINT LeftHandIndex3
                      {
                        OFFSET 3.662364 0.0 0.0
                        CHANNELS 3 Zrotation Yrotation Xrotation
                        JOINT LeftHandIndex4
                        {
                          OFFSET 2.329242 4e-06 -4e-06
                          CHANNELS 3 Zrotation Yrotation Xrotation
                          JOINT LeftHandIndexEnd
                          {
                            OFFSET 2.767823 1e-06 0.0
                            CHANNELS 3 Zrotation Yrotation Xrotation
                          }
                        }
                      }
                    }
                  }
                  JOINT LeftHandMiddle1
                  {
                    OFFSET 3.163612 0.945023 -0.406112
                    CHANNELS 3 Zrotation Yrotation Xrotation
                    JOINT LeftHandMiddle2
                    {
                      OFFSET 6.276789 3e-06 0.0
                      CHANNELS 3 Zrotation Yrotation Xrotation
                      JOINT LeftHandMiddle3
                      {
                        OFFSET 4.35652 -1e-06 4e-06
                        CHANNELS 3 Zrotation Yrotation Xrotation
                        JOINT LeftHandMiddle4
                        {
                          OFFSET 2.996877 0.0 8e-06
                          CHANNELS 3 Zrotation Yrotation Xrotation
                          JOINT LeftHandMiddleEnd
                          {
                            OFFSET 2.323256 3e-06 -4e-06
                            CHANNELS 3 Zrotation Yrotation Xrotation
                          }
                        }
                      }
                    }
                  }
                  JOINT LeftHandRing1
                  {
                    OFFSET 2.882606 -0.309162 0.107445
                    CHANNELS 3 Zrotation Yrotation Xrotation
                    JOINT LeftHandRing2
                    {
                      OFFSET 6.033198 0.0 4e-06
                      CHANNELS 3 Zrotation Yrotation Xrotation
                      JOINT LeftHandRing3
                      {
                        OFFSET 4.350578 3e-06 0.0
                        CHANNELS 3 Zrotation Yrotation Xrotation
                        JOINT LeftHandRing4
                        {
                          OFFSET 2.651321 2e-06 -7e-06
                          CHANNELS 3 Zrotation Yrotation Xrotation
                          JOINT LeftHandRingEnd
                          {
                            OFFSET 1.937663 1e-06 -4e-06
                            CHANNELS 3 Zrotation Yrotation Xrotation
                          }
                        }
                      }
                    }
                  }
                  JOINT LeftHandPinky1
                  {
                    OFFSET 2.865315 -1.525436 0.575687
                    CHANNELS 3 Zrotation Yrotation Xrotation
                    JOINT LeftHandPinky2
                    {
                      OFFSET 5.54936 1e-06 -8e-06
                      CHANNELS 3 Zrotation Yrotation Xrotation
                      JOINT LeftHandPinky3
                      {
                        OFFSET 3.070974 0.0 -4e-06
                        CHANNELS 3 Zrotation Yrotation Xrotation
                        JOINT LeftHandPinky4
                        {
                          OFFSET 1.549672 1e-06 0.0
                          CHANNELS 3 Zrotation Yrotation Xrotation
                          JOINT LeftHandPinkyEnd
                          {
                            OFFSET 1.952123 0.0 0.0
                            CHANNELS 3 Zrotation Yrotation Xrotation
                          }
                        }
                      }
                    }
                  }
                }
              }
            }
          }
          JOINT RightShoulder
          {
            OFFSET 23.161716 5.296122 -1.380114
            CHANNELS 3 Zrotation Yrotation Xrotation
            JOINT RightArm
            {
              OFFSET -16.027195 -2e-06 1.1e-05
              CHANNELS 3 Zrotation Yrotation Xrotation
              JOINT RightForeArm
              {
                OFFSET -28.736639 4e-06 2e-06
                CHANNELS 3 Zrotation Yrotation Xrotation
                JOINT RightHand
                {
                  OFFSET -27.133619 6e-06 0.0
                  CHANNELS 3 Zrotation Yrotation Xrotation
                  JOINT RightHandThumb1
                  {
                    OFFSET -2.274328 -3.351035 -0.83067
                    CHANNELS 3 Zrotation Yrotation Xrotation
                    JOINT RightHandThumb2
                    {
                      OFFSET -4.703594 -3e-06 2e-06
                      CHANNELS 3 Zrotation Yrotation Xrotation
                      JOINT RightHandThumb3
                      {
                        OFFSET -2.794935 -4e-06 -3e-06
                        CHANNELS 3 Zrotation Yrotation Xrotation
                        JOINT RightHandThumbEnd
                        {
                          OFFSET -3.183852 4e-06 1e-06
                          CHANNELS 3 Zrotation Yrotation Xrotation
                        }
                      }
                    }
                  }
                  JOINT RightHandIndex1
                  {
                    OFFSET -3.253496 -2.33755 -0.127667
                    CHANNELS 3 Zrotation Yrotation Xrotation
                    JOINT RightHandIndex2
                    {
                      OFFSET -6.344434 0.0 0.0
                      CHANNELS 3 Zrotation Yrotation Xrotation
                      JOINT RightHandIndex3
                      {
                        OFFSET -3.654871 0.0 -8e-06
                        CHANNELS 3 Zrotation Yrotation Xrotation
                        JOINT RightHandIndex4
                        {
                          OFFSET -2.327586 -1e-06 0.0
                          CHANNELS 3 Zrotation Yrotation Xrotation
                          JOINT RightHandIndexEnd
                          {
                            OFFSET -2.770001 3e-06 8e-06
                            CHANNELS 3 Zrotation Yrotation Xrotation
                          }
                        }
                      }
                    }
                  }
                  JOINT RightHandMiddle1
                  {
                    OFFSET -3.168223 -0.944764 0.411762
                    CHANNELS 3 Zrotation Yrotation Xrotation
                    JOINT RightHandMiddle2
                    {
                      OFFSET -6.266691 -1e-06 -4e-06
                      CHANNELS 3 Zrotation Yrotation Xrotation
                      JOINT RightHandMiddle3
                      {
                        OFFSET -4.348901 0.0 0.0
                        CHANNELS 3 Zrotation Yrotation Xrotation
                        JOINT RightHandMiddle4
                        {
                          OFFSET -3.00024 2e-06 -4e-06
                          CHANNELS 3 Zrotation Yrotation Xrotation
                          JOINT RightHandMiddleEnd
                          {
                            OFFSET -2.321477 -4e-06 -4e-06
                            CHANNELS 3 Zrotation Yrotation Xrotation
                          }
                        }
                      }
                    }
                  }
                  JOINT RightHandRing1
                  {
                    OFFSET -2.885654 0.293261 -0.119232
                    CHANNELS 3 Zrotation Yrotation Xrotation
                    JOINT RightHandRing2
                    {
                      OFFSET -6.032835 -1e-06 -4e-06
                      CHANNELS 3 Zrotation Yrotation Xrotation
                      JOINT RightHandRing3
                      {
                        OFFSET -4.33881 0.0 -4e-06
                        CHANNELS 3 Zrotation Yrotation Xrotation
                        JOINT RightHandRing4
                        {
                          OFFSET -2.654903 -4e-06 -4e-06
                          CHANNELS 3 Zrotation Yrotation Xrotation
                          JOINT RightHandRingEnd
                          {
                            OFFSET -1.935122 0.0 4e-06
                            CHANNELS 3 Zrotation Yrotation Xrotation
                          }
                        }
                      }
                    }
                  }
                  JOINT RightHandPinky1
                  {
                    OFFSET -2.866241 1.503904 -0.60527
                    CHANNELS 3 Zrotation Yrotation Xrotation
                    JOINT RightHandPinky2
                    {
                      OFFSET -5.553177 -2e-06 0.0
                      CHANNELS 3 Zrotation Yrotation Xrotation
                      JOINT RightHandPinky3
                      {
                        OFFSET -3.062664 -1e-06 -4e-06
                        CHANNELS 3 Zrotation Yrotation Xrotation
                        JOINT RightHandPinky4
                        {
                          OFFSET -1.546529 2e-06 4e-06
                          CHANNELS 3 Zrotation Yrotation Xrotation
                          JOINT RightHandPinkyEnd
                          {
                            OFFSET -1.952341 0.0 -4e-06
                            CHANNELS 3 Zrotation Yrotation Xrotation
                          }
                        }
                      }
                    }
                  }
                }
              }
            }
          }
        }
      }
    }
    JOINT LeftLeg
    {
      OFFSET -8.443107 2.567604 10.043214
      CHANNELS 3 Zrotation Yrotation Xrotation
      JOINT LeftShin
      {
        OFFSET 43.229198 1e-06 -1e-06
        CHANNELS 3 Zrotation Yrotation Xrotation
        JOINT LeftFoot
        {
          OFFSET 42.298611 1e-06 1e-06
          CHANNELS 3 Zrotation Yrotation Xrotation
          JOINT LeftToeBase
          {
            OFFSET 14.165858 1e-06 0.0
            CHANNELS 3 Zrotation Yrotation Xrotation
            JOINT LeftToeEnd
            {
              OFFSET 6.7141 -0.234461 0.0
              CHANNELS 3 Zrotation Yrotation Xrotation
            }
          }
        }
      }
    }
    JOINT RightLeg
    {
      OFFSET -8.303923 2.592729 -10.047278
      CHANNELS 3 Zrotation Yrotation Xrotation
      JOINT RightShin
      {
        OFFSET -43.369682 0.0 1e-06
        CHANNELS 3 Zrotation Yrotation Xrotation
        JOINT RightFoot
        {
          OFFSET -42.260784 4e-06 2e-06
          CHANNELS 3 Zrotation Yrotation Xrotation
          JOINT RightToeBase
          {
            OFFSET -14.222245 -2e-06 -1e-06
            CHANNELS 3 Zrotation Yrotation Xrotation
            JOINT RightToeEnd
            {
              OFFSET -6.660062 0.232574 -2e-06
              CHANNELS 3 Zrotation Yrotation Xrotation
            }
          }
        }
      }
    }
  }
}
MOTION
Frames: 4
Frame Time: 0.03333333333333333
0.0 0.0 0.0 0.0 -0.0 0.0 39.49625 98.446045 567.73175 92.25988 10.78024 107.473747 -4.432559 2.032567 0.129489 -12.769628 1.380602 0.836201 21.108925 8.76391 1.819695 45.459831 4.627569 2.017291 -2.685135 -1.214676 -8.627689 -22.473137 -10.673485 -5.494291 7e-06 0.0 -1e-06 -0.023662 0.100359 -0.210302 0.0482 0.109461 -0.197629 0.100835 0.081171 -0.216722 -94.532097 -66.180412 108.647903 16.4079 -68.212898 26.599623 26.894703 -0.212964 -0.089888 0.205562 12.640821 5.450182 17.636621 -26.322756 52.411228 -19.46666 -14.395563 29.410419 1e-06 -8.774821 -6e-06 15.829371 -18.005867 5.818851 -0.609779 -1.795657 -3.889329 -4.807089 -11.04683 -2.937856 -6e-06 -20.976091 4e-06 -5.019978 -25.033707 -4.031896 6e-06 1e-06 -0.0 -10.634524 -5.686981 -3.565593 10.573255 -17.922979 -3.113896 -3e-06 -13.821261 3e-06 -0.501779 -31.181723 -4.027034 -10.778153 -58.842285 6.424709 -13.9827 -7.150207 -2.87505 13.772711 -8.401501 -3.218236 0.347712 -34.211689 0.771669 -0.963048 -17.73349 2.62104 -0.0 1e-06 1e-06 -17.346405 -20.095243 -4.201789 21.75754 -1.638367 3.86644 -1e-06 -6.338848 3e-06 -1.697584 -22.591902 -6.194048 -1e-06 -4e-06 -2e-06 28.269728 -85.900932 160.234741 62.798401 -28.253553 -58.557308 65.467293 -1.588785 0.649168 -2.350358 25.44529 14.90195 22.182045 -20.375933 49.933212 -16.701784 -16.743517 28.476486 -1.9e-05 -12.69057 1.6e-05 16.328402 -17.706287 2.700619 -0.105917 -1.51385 -4.275874 -5.039019 -5.612858 -2.953544 1.5e-05 -11.020527 1.4e-05 -6.111262 -15.895341 -3.84044 0.0 1e-06 -1e-06 -10.28334 -5.680266 -4.341826 11.028277 -11.302402 -2.372626 -1.384248 -14.23857 -6.320093 -0.625425 -26.924238 -3.827549 -4.023906 -49.644264 -3.687361 -13.708482 -7.363446 -3.720926 18.141113 -14.052738 -3.242669 1.2e-05 -18.787275 2.7e-05 -0.429714 -8.456067 2.555521 -2e-06 -4e-06 2e-06 -15.923478 -20.094429 -5.473559 30.419136 -7.190827 1.735894 2e-06 -8.162933 9e-06 -1.861894 -22.861523 -6.167896 2e-06 -5e-06 0.0 -178.86734 6.177828 3.793428 22.109411 -0.008459 -0.298508 -81.785637 -3.610392 5.437129 -4.461223 1.516488 2.118887 -0.999999 0.0 -0.0 16.079018 -10.303015 -22.937788 12.163449 -0.020651 0.208918 -74.842728 -2.411161 -15.414139 -5.679847 0.495342 1.60179 -1.000002 -0.0 0.0 
0.0 0.0 0.0 0.0 -0.0 0.0 39.30418 98.444115 567.373779 92.364731 10.819883 107.831291 -4.386372 1.970075 0.151195 -12.760454 1.378531 0.888103 21.089312 8.67898 1.853258 45.464012 4.67251 2.018234 -2.690285 -1.207477 -8.667322 -22.61252 -10.572328 -5.507758 6e-06 -0.0 -1e-06 -0.020712 0.099779 -0.214583 0.047046 0.115422 -0.199558 0.101855 0.073816 -0.223089 -94.587334 -66.128639 108.727753 15.420757 -68.18132 27.156013 26.359526 -0.212185 -0.102728 0.106654 12.318417 5.268742 17.636789 -26.323048 52.411617 -19.467005 -14.395859 29.410788 9e-06 -8.775016 8e-06 15.862823 -17.99964 5.817152 -0.609778 -1.795676 -3.889363 -4.807183 -11.047007 -2.937869 -2.7e-05 -20.97649 9e-06 -5.020158 -25.034273 -4.031965 6e-06 -0.0 -0.0 -10.634674 -5.68705 -3.565591 10.57345 -17.92325 -3.113962 -1.7e-05 -13.821509 -1e-06 -0.501835 -31.182434 -4.027132 -10.764899 -58.874416 6.423306 -13.982903 -7.150299 -2.875027 13.772968 -8.401618 -3.218311 0.347694 -34.21241 0.771662 -0.963065 -17.733883 2.621063 -0.0 1e-06 -0.0 -17.346697 -20.095503 -4.201746 21.757948 -1.638376 3.866456 -8e-06 -6.338964 -3e-06 -1.697669 -22.592409 -6.194169 1e-06 -5e-06 -2e-06 29.477715 -85.844513 158.985229 62.77866 -28.559944 -59.324802 65.531685 -1.785564 0.59859 -2.372313 25.5557 14.618149 22.1824 -20.376287 49.933952 -16.701998 -16.743868 28.476952 3.2e-05 -12.690882 9e-06 16.331079 -17.712049 2.693624 -0.105923 -1.513864 -4.275931 -5.039139 -5.612958 -2.953582 -2.8e-05 -11.020728 3.2e-05 -6.111511 -15.89571 -3.840518 0.0 -2e-06 0.0 -10.283523 -5.680365 -4.341873 11.028462 -11.302543 -2.372652 -1.384346 -14.238844 -6.320208 -0.625558 -26.924839 -3.827644 -4.009315 -49.647629 -3.729232 -13.708727 -7.36358 -3.720958 18.141432 -14.052902 -3.242704 -6.8e-05 -18.787647 4.8e-05 -0.429757 -8.456255 2.555583 2e-06 2e-06 1e-06 -15.923823 -20.094744 -5.47359 30.419741 -7.19086 1.73597 -2.8e-05 -8.163084 1.5e-05 -1.862056 -22.862062 -6.168054 -1e-06 -2e-06 -2e-06 -179.098053 6.177407 3.88012 22.159384 -0.008459 -0.308925 -81.588951 -3.490724 5.47761 -4.466347 1.515868 2.116105 -1.000004 0.0 0.0 15.998224 -10.2298 -23.05084 12.136524 -0.01804 0.184848 -74.956291 -2.696708 -15.378583 -5.60801 0.494674 1.604006 -1.000004 0.0 -0.0 
0.0 0.0 0.0 0.0 -0.0 0.0 39.057827 98.470436 567.044434 92.453445 10.812355 108.178223 -4.321335 1.915961 0.175762 -12.748759 1.38455 0.972567 21.054659 8.559669 1.87276 45.414429 4.669802 2.042282 -2.700879 -1.202132 -8.728261 -22.775833 -10.408405 -5.529635 6e-06 0.0 -0.0 -0.019731 0.100801 -0.225935 0.041988 0.123268 -0.207981 0.101301 0.067665 -0.236846 -94.701439 -66.039505 108.861237 14.296086 -68.158821 27.941019 25.815704 -0.13489 -0.096516 -0.000235 12.002193 4.943901 17.636864 -26.323055 52.411598 -19.46703 -14.395764 29.410765 -1.5e-05 -8.774975 -5e-06 15.878797 -17.996283 5.840154 -0.609777 -1.795676 -3.889363 -4.80714 -11.046999 -2.937885 3.5e-05 -20.976492 -5e-06 -5.020048 -25.03425 -4.031947 6e-06 1e-06 -0.0 -10.634641 -5.687033 -3.565612 10.573458 -17.923285 -3.113962 2.5e-05 -13.82152 -5e-06 -0.501726 -31.182453 -4.027112 -10.762154 -58.929413 6.446866 -13.982858 -7.150278 -2.875057 13.772933 -8.401654 -3.218294 0.347805 -34.212418 0.771642 -0.963021 -17.733879 2.621089 -0.0 3e-06 -0.0 -17.346601 -20.095476 -4.201797 21.75786 -1.638425 3.866468 1.2e-05 -6.338963 -5e-06 -1.69757 -22.592396 -6.194165 -1e-06 -4e-06 -2e-06 30.803074 -85.795876 157.644012 62.713028 -28.883177 -60.010677 65.652351 -1.90331 0.567336 -2.370667 25.607098 14.24977 22.182438 -20.376165 49.933964 -16.701942 -16.743654 28.476871 9e-06 -12.690764 -3.4e-05 16.320358 -17.704021 2.681563 -0.105931 -1.513865 -4.275923 -5.039111 -5.612927 -2.953606 -1e-06 -11.020658 -3e-06 -6.111389 -15.8956 -3.840591 0.0 -1e-06 -1e-06 -10.283479 -5.680339 -4.341905 11.0284 -11.302505 -2.372633 -1.384295 -14.238754 -6.32024 -0.625428 -26.924644 -3.827701 -3.981544 -49.661972 -3.778646 -13.708661 -7.363547 -3.721008 18.141325 -14.052862 -3.242669 -2e-06 -18.787508 1.4e-05 -0.429723 -8.456182 2.555576 0.0 2e-06 2e-06 -15.923705 -20.094656 -5.47368 30.419508 -7.190901 1.736021 2e-06 -8.16303 1.3e-05 -1.861924 -22.861858 -6.168058 2e-06 -5e-06 -0.0 -179.304337 6.131318 3.967244 22.067051 -0.01024 -0.314622 -81.320961 -3.351915 5.495699 -4.445361 1.509629 2.112225 -1.0 -0.0 -0.0 15.917452 -10.093307 -23.147926 11.988419 -0.014311 0.160664 -74.996384 -3.003003 -15.299615 -5.539681 0.501771 1.606815 -1.000004 0.0 -0.0 
0.0 0.0 0.0 0.0 -0.0 0.0 38.749779 98.526451 566.764954 92.527405 10.74685 108.49733 -4.234453 1.873576 0.194141 -12.73543 1.393925 1.072571 21.009296 8.379708 1.893905 45.306828 4.58294 2.063587 -2.711438 -1.196964 -8.752099 -22.938244 -10.186738 -5.553617 3e-06 0.0 -0.0 -0.022032 0.100257 -0.229653 0.032995 0.124802 -0.209034 0.095756 0.064744 -0.242763 -94.886589 -65.902733 109.091522 13.119617 -68.133011 28.831244 25.211155 -0.000996 -0.07646 -0.101994 11.630667 4.488714 17.636856 -26.323191 52.411762 -19.467096 -14.395924 29.410883 -1e-06 -8.775049 1e-05 15.87385 -17.99506 5.874703 -0.609776 -1.79568 -3.889377 -4.807187 -11.047047 -2.937874 -5e-06 -20.976585 1.9e-05 -5.020166 -25.034393 -4.03195 6e-06 0.0 0.0 -10.634703 -5.687063 -3.5656 10.573509 -17.923344 -3.113976 -3e-06 -13.821576 6e-06 -0.501818 -31.1826 -4.027116 -10.752046 -58.981785 6.459656 -13.98294 -7.150314 -2.875033 13.773025 -8.401664 -3.218323 0.347725 -34.212574 0.771686 -0.963061 -17.733957 2.621095 1e-06 -1e-06 -0.0 -17.346735 -20.095562 -4.201754 21.758017 -1.638403 3.866461 -1e-06 -6.338989 0.0 -1.69765 -22.592501 -6.194169 -1e-06 -5e-06 -2e-06 32.171295 -85.775528 156.289902 62.608765 -29.242121 -60.568378 65.810844 -1.935884 0.562109 -2.349756 25.537107 13.907933 22.18251 -20.376356 49.934269 -16.702078 -16.743877 28.477116 1.9e-05 -12.690913 -1e-05 16.281313 -17.680458 2.688845 -0.105924 -1.513869 -4.27595 -5.039155 -5.612967 -2.953616 -1.3e-05 -11.020741 7e-06 -6.111493 -15.895738 -3.840602 0.0 2e-06 -2e-06 -10.283551 -5.680376 -4.34191 11.0285 -11.302567 -2.372666 -1.384326 -14.238862 -6.320275 -0.625474 -26.924879 -3.827721 -3.977806 -49.672283 -3.778091 -13.708768 -7.363594 -3.721 18.141504 -14.052938 -3.242719 -3.1e-05 -18.787655 2.4e-05 -0.429741 -8.456256 2.555598 -2e-06 0.0 -2e-06 -15.923847 -20.094786 -5.47367 30.419819 -7.190915 1.735992 -1.3e-05 -8.163094 1.8e-05 -1.862003 -22.862055 -6.168097 2e-06 -0.0 -0.0 -179.480484 6.032501 4.034036 21.82276 -0.010286 -0.316614 -80.983795 -3.189187 5.456356 -4.402457 1.497 2.108831 -1.000005 1e-06 0.0 15.830518 -9.893337 -23.207466 11.724267 -0.012391 0.139796 -74.96814 -3.370061 -15.166862 -5.462711 0.516351 1.611365 -1.00001 -0.0 -0.0 
